#!OML:ASF H:\MichaelJackson\Top Level 1\Subject 1\Session 1\male.ASF
:FULLY-SPECIFIED
:DEGREES
514
root 2.7299 16.4692 -12.8829 12.483 9.70787 0.166098
lowerback 7.12493 1.07926 -2.61056
upperback 3.154 1.24016 -2.517
thorax -0.737396 0.617416 -1.22029
lowerneck -5.40955 -2.67288 2.41567
upperneck -0.899738 -3.73977 3.42654
head 0.637112 -1.83538 0.570877
rclavicle 4.37326e-015 -2.94201e-014
rhumerus -39.6442 -6.24968 -89.3972
rradius 49.9757
rwrist 6.83809
rhand -40.2501 -37.082
rfingers 7.12502
rthumb -13.2088 -426.644
lclavicle 4.37326e-015 -2.94201e-014
lhumerus -36.8337 -16.7993 87.5439
lradius 57.6493
lwrist 17.0737
lhand -36.4635 19.9796
lfingers 7.12502
lthumb -9.55705 49.7428
rfemur -40.1265 -16.5552 18.4478
rtibia 84.7992
rfoot 0.452735 0.427903
rtoes 8.99445
lfemur -46.5111 24.2924 -32.6628
ltibia 43.2248
lfoot -15.1007 -5.75884
ltoes 17.026
515
root 2.77303 16.481 -12.7737 12.5344 10.0182 0.419631
lowerback 7.15998 0.890704 -2.63595
upperback 3.18131 0.988335 -2.53304
thorax -0.729194 0.491883 -1.2036
lowerneck -5.45646 -2.65866 2.40411
upperneck -0.912926 -3.72181 3.46642
head 0.641941 -1.82573 0.584816
rclavicle -2.26615e-014 -3.02153e-014
rhumerus -40.0229 -5.38567 -89.4451
rradius 48.5195
rwrist 8.31878
rhand -37.8275 -34.5855
rfingers 7.12502
rthumb -10.8729 -424.284
lclavicle -2.26615e-014 -3.02153e-014
lhumerus -36.0622 -17.9992 87.4153
lradius 59.8936
lwrist 16.4253
lhand -36.7055 20.1381
lfingers 7.12502
lthumb -9.79055 49.8905
rfemur -42.0378 -16.8381 18.7434
rtibia 85.2098
rfoot 0.993822 -0.241336
rtoes 10.0606
lfemur -45.9473 24.0099 -32.7606
ltibia 43.2321
lfoot -15.5783 -5.64107
ltoes 15.8027
516
root 2.81509 16.4918 -12.6636 12.5716 10.3507 0.661957
lowerback 7.18291 0.701553 -2.62953
upperback 3.20112 0.738025 -2.55298
thorax -0.721482 0.367422 -1.20865
lowerneck -5.47553 -2.651 2.3946
upperneck -0.929399 -3.71143 3.49345
head 0.640771 -1.82037 0.594736
rclavicle 2.38542e-015 -3.73715e-014
rhumerus -40.4966 -4.50353 -89.5008
rradius 47.1183
rwrist 10.3558
rhand -35.2183 -31.3152
rfingers 7.12502
rthumb -8.35541 -421.13
lclavicle 2.38542e-015 -3.73715e-014
lhumerus -35.3732 -19.4584 87.2245
lradius 62.3873
lwrist 16.1596
lhand -36.6358 19.9418
lfingers 7.12502
lthumb -9.72326 49.6973
rfemur -43.8635 -17.1167 19.0641
rtibia 85.4177
rfoot 1.46593 -1.0815
rtoes 11.0949
lfemur -45.362 23.6829 -32.8142
ltibia 43.2517
lfoot -16.0515 -5.47586
ltoes 14.5331
517
root 2.85583 16.5012 -12.5527 12.596 10.695 0.901746
lowerback 7.20275 0.503386 -2.61872
upperback 3.21803 0.476167 -2.56576
thorax -0.715276 0.237205 -1.20781
lowerneck -5.49911 -2.63691 2.35897
upperneck -0.935006 -3.69133 3.50427
head 0.643867 -1.81003 0.604038
rclavicle 1.78906e-014 2.3059e-014
rhumerus -41.0316 -3.61736 -89.5495
rradius 45.7901
rwrist 12.7596
rhand -32.5688 -27.4547
rfingers 7.12502
rthumb -5.7979 -417.355
lclavicle 1.78906e-014 2.3059e-014
lhumerus -34.7082 -21.0889 86.932
lradius 65.0771
lwrist 16.2508
lhand -36.2329 19.4491
lfingers 7.12502
lthumb -9.33449 49.2225
rfemur -45.5993 -17.3756 19.3922
rtibia 85.4238
rfoot 1.85363 -2.00717
rtoes 11.9843
lfemur -44.7545 23.3167 -32.8332
ltibia 43.2798
lfoot -16.5229 -5.27034
ltoes 13.3082
518
root 2.89515 16.5091 -12.4406 12.6081 11.0398 1.1509
lowerback 7.21975 0.304636 -2.62004
upperback 3.2322 0.2128 -2.57581
thorax -0.710501 0.106128 -1.19721
lowerneck -5.52278 -2.62037 2.30386
upperneck -0.930253 -3.667 3.49784
head 0.650194 -1.79751 0.611275
rclavicle 6.48038e-014 1.66979e-014
rhumerus -41.6133 -2.80763 -89.5636
rradius 44.5405
rwrist 15.3923
rhand -29.9207 -23.2598
rfingers 7.12502
rthumb -3.24086 -413.215
lclavicle 6.48038e-014 1.66979e-014
lhumerus -34.0039 -22.8811 86.501
lradius 67.891
lwrist 16.6249
lhand -35.5356 18.8673
lfingers 7.12502
lthumb -8.66163 48.6696
rfemur -47.2344 -17.6028 19.7032
rtibia 85.2274
rfoot 2.15383 -2.92443
rtoes 12.6816
lfemur -44.1233 22.9247 -32.8351
ltibia 43.3153
lfoot -17.0034 -5.04606
ltoes 12.2827
519
root 2.93281 16.5155 -12.3273 12.6045 11.3754 1.41739
lowerback 7.24611 0.110909 -2.63985
upperback 3.23975 -0.0458775 -2.59254
thorax -0.717681 -0.0226217 -1.1835
lowerneck -5.54218 -2.60288 2.24384
upperneck -0.909508 -3.64134 3.47384
head 0.660478 -1.78423 0.613912
rclavicle -3.04141e-014 -3.18055e-015
rhumerus -42.2441 -2.12626 -89.5441
rradius 43.4082
rwrist 18.0049
rhand -27.3529 -19.0309
rfingers 7.12502
rthumb -0.760951 -409.009
lclavicle -3.04141e-014 -3.18055e-015
lhumerus -33.2176 -24.7849 85.8833
lradius 70.7822
lwrist 17.1786
lhand -34.555 18.2426
lfingers 7.12502
lthumb -7.71529 48.0819
rfemur -48.7507 -17.7845 19.9748
rtibia 84.8291
rfoot 2.40967 -3.77286
rtoes 13.379
lfemur -43.4632 22.516 -32.8285
ltibia 43.3572
lfoot -17.5071 -4.81048
ltoes 11.5515
520
root 2.969 16.5203 -12.2129 12.5881 11.6857 1.69801
lowerback 7.26974 -0.070732 -2.68903
upperback 3.24604 -0.290408 -2.60919
thorax -0.724333 -0.144569 -1.15422
lowerneck -5.55836 -2.58379 2.17722
upperneck -0.878819 -3.61314 3.43016
head 0.672998 -1.76976 0.611645
rclavicle -1.11319e-014 2.8625e-014
rhumerus -42.9081 -1.59585 -89.4722
rradius 42.3911
rwrist 20.4592
rhand -24.9951 -15.0303
rfingers 7.12502
rthumb 1.51627 -405.005
lclavicle -1.11319e-014 2.8625e-014
lhumerus -32.2976 -26.7185 85.0431
lradius 73.7068
lwrist 17.786
lhand -33.2907 17.5459
lfingers 7.12502
lthumb -6.49488 47.4263
rfemur -50.1438 -17.9029 20.1964
rtibia 84.2276
rfoot 2.59295 -4.47356
rtoes 13.865
lfemur -42.7807 22.1031 -32.8177
ltibia 43.4031
lfoot -18.0262 -4.5663
ltoes 11.1147
